PathFileType	4	(x/y/z)	S08_BK_Cal_T01
DataRate	CameraRate	NumFrames	NumMarkers	Units	OrigDataRate	OrigDataStartFrame	OrigNumFrames
240	240	6	51	mm	240	1501	2400
Frame#	Time	Sternum			R.Acromium			L.Acromium			Top.Head			R.ASIS			L.ASIS			R.PSIS			L.PSIS			R.Great.Tro			L.Great.Tro			R.Iliac.Crest			L.Iliac.Crest			V.Sacral			R.Thigh.Upper.Post			R.Thigh.Lower.Ant			R.Thigh.Lower.Post			R.Thigh.Upper.Ant			R.Knee.Lat			R.Knee.Med			R.Shank.Upper.Post			R.Shank.Lower.Ant			R.Shank.Lower.Post			R.Shank.Upper.Ant			R.Ankle.Lat			R.Ankle.Med			R.Heel.Upper			R.Heel.Med			R.Heel.Lat			R.Toe.Lat			R.Toe.Med			R.Toe.Tip			L.Thigh.Upper.Post			L.Thigh.Lower.Ant			L.Thigh.Lower.Post			L.Thigh.Upper.Ant			L.Knee.Lat			L.Knee.Med			L.Shank.Upper.Post			L.Shank.Lower.Ant			L.Shank.Lower.Post			L.Shank.Upper.Ant			L.Ankle.Lat			L.Ankle.Med			L.Heel.Upper			L.Heel.Med			L.Heel.Lat			L.Toe.Lat			L.Toe.Med			L.Toe.Tip			Cervical.Spine			Back			
		X1	Y1	Z1	X2	Y2	Z2	X3	Y3	Z3	X4	Y4	Z4	X5	Y5	Z5	X6	Y6	Z6	X7	Y7	Z7	X8	Y8	Z8	X9	Y9	Z9	X10	Y10	Z10	X11	Y11	Z11	X12	Y12	Z12	X13	Y13	Z13	X14	Y14	Z14	X15	Y15	Z15	X16	Y16	Z16	X17	Y17	Z17	X18	Y18	Z18	X19	Y19	Z19	X20	Y20	Z20	X21	Y21	Z21	X22	Y22	Z22	X23	Y23	Z23	X24	Y24	Z24	X25	Y25	Z25	X26	Y26	Z26	X27	Y27	Z27	X28	Y28	Z28	X29	Y29	Z29	X30	Y30	Z30	X31	Y31	Z31	X32	Y32	Z32	X33	Y33	Z33	X34	Y34	Z34	X35	Y35	Z35	X36	Y36	Z36	X37	Y37	Z37	X38	Y38	Z38	X39	Y39	Z39	X40	Y40	Z40	X41	Y41	Z41	X42	Y42	Z42	X43	Y43	Z43	X44	Y44	Z44	X45	Y45	Z45	X46	Y46	Z46	X47	Y47	Z47	X48	Y48	Z48	X49	Y49	Z49	X50	Y50	Z50	X51	Y51	Z51	

1501	6.25	494.17	1160.1	320.25	404.14	1419.2	486.55	408.74	1439.2	152.21	418.43	1737.6	333.35	410.09	946.15	430.79	422.02	944.14	198.2	223.71	1024.2	347.75	234.58	1026.9	254.05	324.01	874.59	503.51	315.98	877.79	121.25	335.37	1039.7	470.78	360.06	1047.5	168.5	202.08	990.44	297.54	373.97	680.36	516.67	485.24	615.14	506	414.97	598.62	507.18	450.06	703.72	513.42	486.67	513.44	507.76	472.77	498.36	382.12	395.19	346.43	527.48	442.3	270.94	516.12	378.38	271.9	528.54	459.54	346.99	518.87	340.6	103.99	510.73	373.84	110.73	431.49	291.14	65.237	463.38	305.65	38.932	437.43	294.29	41.155	498.62	NaN	NaN	NaN	491.07	45.55	440.66	553.07	62.706	490.68	373.5	673.81	106.28	488.77	621.26	108.4	423.65	597.29	111.12	442.18	697.35	99.349	476.74	509.39	111.31	492.3	495.42	232.03	389.59	350.16	97.203	436.78	248.68	104.92	371.28	278.31	106.72	449.66	323.81	96.72	350.56	105.38	101.74	379.63	101.82	186.2	294.88	75.129	149.94	311.88	41.728	179.29	300.87	47.841	116.67	474.66	39.864	68.037	501.78	45.563	180.39	561.28	62.632	127.23	344.67	1480.4	309.24	263.44	1211.6	320.82
1502	6.2542	494.19	1160.1	320.24	404.17	1419.2	486.53	408.77	1439.2	152.2	418.51	1737.6	333.35	410.09	946.17	430.77	422.02	944.15	198.18	223.71	1024.2	347.73	234.58	1026.9	254.03	324.01	874.6	503.5	315.98	877.79	121.24	335.38	1039.7	470.77	360.06	1047.5	168.48	202.09	990.45	297.53	373.96	680.38	516.66	485.23	615.15	505.99	414.96	598.64	507.18	450.05	703.73	513.4	486.62	513.46	507.75	472.75	498.36	382.12	395.17	346.43	527.47	442.29	270.95	516.12	378.37	271.91	528.53	459.52	347	518.87	340.6	103.99	510.73	373.84	110.73	431.49	291.14	65.237	463.38	305.65	38.933	437.43	294.3	41.156	498.62	NaN	NaN	NaN	491.07	45.55	440.66	553.07	62.706	490.69	373.5	673.81	106.28	488.76	621.26	108.4	423.65	597.29	111.13	442.18	697.35	99.349	476.73	509.39	111.32	492.29	495.42	232.04	389.58	350.16	97.207	436.78	248.68	104.92	371.28	278.31	106.73	449.65	323.81	96.724	350.56	105.38	101.74	379.63	101.82	186.2	294.88	75.129	149.94	311.88	41.728	179.3	300.87	47.841	116.67	474.66	39.866	68.039	501.78	45.563	180.39	561.28	62.632	127.24	344.7	1480.4	309.22	263.46	1211.6	320.8
1503	6.2583	494.2	1160.1	320.23	404.2	1419.2	486.52	408.8	1439.3	152.18	418.58	1737.6	333.35	410.09	946.18	430.76	422.02	944.15	198.17	223.72	1024.3	347.72	234.59	1026.9	254.01	324.01	874.62	503.49	315.99	877.79	121.23	335.38	1039.7	470.75	360.07	1047.5	168.46	202.09	990.46	297.51	373.95	680.4	516.65	485.21	615.16	505.98	414.95	598.66	507.17	450.04	703.74	513.39	486.58	513.48	507.75	472.74	498.37	382.12	395.16	346.43	527.46	442.28	270.95	516.12	378.35	271.91	528.53	459.51	347.01	518.87	340.6	103.99	510.73	373.84	110.73	431.49	291.14	65.237	463.38	305.65	38.933	437.43	294.3	41.157	498.61	NaN	NaN	NaN	491.07	45.55	440.66	553.07	62.706	490.69	373.5	673.81	106.28	488.75	621.26	108.41	423.64	597.29	111.14	442.17	697.35	99.349	476.72	509.39	111.32	492.28	495.42	232.04	389.58	350.16	97.211	436.78	248.68	104.93	371.28	278.31	106.73	449.65	323.81	96.729	350.56	105.38	101.74	379.62	101.82	186.2	294.88	75.129	149.95	311.88	41.728	179.3	300.87	47.842	116.67	474.66	39.867	68.04	501.78	45.562	180.39	561.28	62.632	127.24	344.74	1480.4	309.21	263.48	1211.6	320.78
1504	6.2625	494.22	1160.1	320.22	404.23	1419.2	486.51	408.84	1439.3	152.17	418.65	1737.6	333.35	410.1	946.19	430.74	422.02	944.16	198.15	223.72	1024.3	347.7	234.59	1026.9	253.99	324.01	874.63	503.47	315.99	877.79	121.22	335.39	1039.7	470.74	360.07	1047.5	168.44	202.09	990.47	297.5	373.94	680.41	516.64	485.2	615.17	505.98	414.94	598.67	507.16	450.03	703.75	513.38	486.54	513.5	507.74	472.72	498.38	382.11	395.14	346.43	527.45	442.27	270.96	516.12	378.34	271.92	528.53	459.5	347.01	518.87	340.6	103.99	510.72	373.84	110.73	431.49	291.14	65.237	463.37	305.65	38.934	437.43	294.3	41.159	498.61	NaN	NaN	NaN	491.07	45.55	440.66	553.07	62.707	490.69	373.49	673.81	106.29	488.75	621.26	108.41	423.63	597.28	111.15	442.17	697.35	99.35	476.71	509.39	111.33	492.26	495.43	232.05	389.58	350.16	97.215	436.77	248.69	104.94	371.27	278.32	106.74	449.64	323.81	96.735	350.57	105.38	101.75	379.62	101.81	186.2	294.88	75.129	149.95	311.88	41.728	179.3	300.87	47.843	116.67	474.66	39.869	68.042	501.78	45.561	180.39	561.28	62.632	127.24	344.77	1480.4	309.2	263.5	1211.6	320.76
1505	6.2667	494.24	1160.1	320.2	404.26	1419.2	486.5	408.87	1439.3	152.16	418.71	1737.7	333.35	410.11	946.2	430.72	422.01	944.16	198.13	223.73	1024.3	347.69	234.59	1026.9	253.97	324.01	874.65	503.46	315.98	877.79	121.21	335.4	1039.7	470.72	360.07	1047.5	168.42	202.09	990.49	297.49	373.93	680.43	516.63	485.19	615.18	505.97	414.93	598.69	507.15	450.03	703.76	513.36	486.51	513.51	507.73	472.71	498.38	382.11	395.13	346.44	527.44	442.27	270.97	516.12	378.33	271.93	528.52	459.48	347.02	518.86	340.59	103.99	510.72	373.84	110.73	431.49	291.14	65.236	463.37	305.65	38.934	437.43	294.3	41.16	498.61	NaN	NaN	NaN	491.07	45.55	440.66	553.07	62.707	490.68	373.48	673.81	106.29	488.74	621.26	108.42	423.62	597.28	111.16	442.16	697.35	99.352	476.69	509.39	111.35	492.25	495.43	232.06	389.57	350.16	97.221	436.77	248.69	104.95	371.27	278.32	106.74	449.64	323.82	96.741	350.57	105.38	101.75	379.62	101.81	186.2	294.88	75.129	149.95	311.88	41.727	179.3	300.87	47.844	116.67	474.66	39.87	68.044	501.78	45.56	180.4	561.28	62.631	127.24	344.81	1480.4	309.19	263.52	1211.6	320.74
1506	6.2708	494.26	1160.1	320.19	404.3	1419.2	486.48	408.9	1439.3	152.15	418.78	1737.7	333.35	410.11	946.21	430.7	422.01	944.17	198.11	223.74	1024.3	347.68	234.6	1026.9	253.95	324.01	874.66	503.45	315.98	877.79	121.2	335.41	1039.7	470.7	360.07	1047.5	168.41	202.09	990.5	297.48	373.93	680.44	516.62	485.17	615.19	505.96	414.92	598.7	507.14	450.02	703.77	513.35	486.47	513.53	507.72	472.69	498.39	382.1	395.12	346.44	527.44	442.26	270.97	516.12	378.32	271.93	528.52	459.47	347.02	518.86	340.59	103.99	510.72	373.84	110.73	431.49	291.14	65.236	463.37	305.65	38.935	437.43	294.3	41.162	498.61	NaN	NaN	NaN	491.07	45.551	440.66	553.07	62.708	490.68	373.47	673.82	106.3	488.73	621.26	108.43	423.61	597.28	111.17	442.15	697.34	99.354	476.68	509.39	111.36	492.23	495.44	232.07	389.57	350.17	97.226	436.77	248.69	104.95	371.27	278.32	106.75	449.63	323.82	96.747	350.57	105.38	101.75	379.62	101.81	186.21	294.88	75.129	149.95	311.88	41.727	179.3	300.87	47.845	116.67	474.66	39.872	68.046	501.78	45.559	180.4	561.28	62.631	127.25	344.84	1480.4	309.17	263.54	1211.7	320.72
